<svg xmlns='http://www.w3.org/2000/svg' width='1200' height='1200' viewBox='0 0 1200 1200' stroke='rgba(114,213,180,0.32)' stroke-width='2' fill='none'>
    <polygon points="0.00,-50.00 43.30,-25.00 43.30,25.00 0.00,50.00 -43.30,25.00 -43.30,-25.00"/>
    <polygon points="86.60,-50.00 129.90,-25.00 129.90,25.00 86.60,50.00 43.30,25.00 43.30,-25.00"/>
    <polygon points="173.21,-50.00 216.51,-25.00 216.51,25.00 173.21,50.00 129.90,25.00 129.90,-25.00"/>
    <polygon points="259.81,-50.00 303.11,-25.00 303.11,25.00 259.81,50.00 216.51,25.00 216.51,-25.00"/>
    <polygon points="346.41,-50.00 389.71,-25.00 389.71,25.00 346.41,50.00 303.11,25.00 303.11,-25.00"/>
    <polygon points="433.01,-50.00 476.31,-25.00 476.31,25.00 433.01,50.00 389.71,25.00 389.71,-25.00"/>
    <polygon points="519.62,-50.00 562.92,-25.00 562.92,25.00 519.62,50.00 476.31,25.00 476.31,-25.00"/>
    <polygon points="606.22,-50.00 649.52,-25.00 649.52,25.00 606.22,50.00 562.92,25.00 562.92,-25.00"/>
    <polygon points="692.82,-50.00 736.12,-25.00 736.12,25.00 692.82,50.00 649.52,25.00 649.52,-25.00"/>
    <polygon points="779.42,-50.00 822.72,-25.00 822.72,25.00 779.42,50.00 736.12,25.00 736.12,-25.00"/>
    <polygon points="866.03,-50.00 909.33,-25.00 909.33,25.00 866.03,50.00 822.72,25.00 822.72,-25.00"/>
    <polygon points="952.63,-50.00 995.93,-25.00 995.93,25.00 952.63,50.00 909.33,25.00 909.33,-25.00"/>
    <polygon points="1039.23,-50.00 1082.53,-25.00 1082.53,25.00 1039.23,50.00 995.93,25.00 995.93,-25.00"/>
    <polygon points="1125.83,-50.00 1169.13,-25.00 1169.13,25.00 1125.83,50.00 1082.53,25.00 1082.53,-25.00"/>
    <polygon points="1212.44,-50.00 1255.74,-25.00 1255.74,25.00 1212.44,50.00 1169.13,25.00 1169.13,-25.00"/>
    <polygon points="43.30,25.00 86.60,50.00 86.60,100.00 43.30,125.00 -0.00,100.00 0.00,50.00"/>
    <polygon points="129.90,25.00 173.21,50.00 173.21,100.00 129.90,125.00 86.60,100.00 86.60,50.00"/>
    <polygon points="216.51,25.00 259.81,50.00 259.81,100.00 216.51,125.00 173.21,100.00 173.21,50.00"/>
    <polygon points="303.11,25.00 346.41,50.00 346.41,100.00 303.11,125.00 259.81,100.00 259.81,50.00"/>
    <polygon points="389.71,25.00 433.01,50.00 433.01,100.00 389.71,125.00 346.41,100.00 346.41,50.00"/>
    <polygon points="476.31,25.00 519.62,50.00 519.62,100.00 476.31,125.00 433.01,100.00 433.01,50.00"/>
    <polygon points="562.92,25.00 606.22,50.00 606.22,100.00 562.92,125.00 519.62,100.00 519.62,50.00"/>
    <polygon points="649.52,25.00 692.82,50.00 692.82,100.00 649.52,125.00 606.22,100.00 606.22,50.00"/>
    <polygon points="736.12,25.00 779.42,50.00 779.42,100.00 736.12,125.00 692.82,100.00 692.82,50.00"/>
    <polygon points="822.72,25.00 866.03,50.00 866.03,100.00 822.72,125.00 779.42,100.00 779.42,50.00"/>
    <polygon points="909.33,25.00 952.63,50.00 952.63,100.00 909.33,125.00 866.03,100.00 866.03,50.00"/>
    <polygon points="995.93,25.00 1039.23,50.00 1039.23,100.00 995.93,125.00 952.63,100.00 952.63,50.00"/>
    <polygon points="1082.53,25.00 1125.83,50.00 1125.83,100.00 1082.53,125.00 1039.23,100.00 1039.23,50.00"/>
    <polygon points="1169.13,25.00 1212.44,50.00 1212.44,100.00 1169.13,125.00 1125.83,100.00 1125.83,50.00"/>
    <polygon points="1255.74,25.00 1299.04,50.00 1299.04,100.00 1255.74,125.00 1212.44,100.00 1212.44,50.00"/>
    <polygon points="0.00,100.00 43.30,125.00 43.30,175.00 0.00,200.00 -43.30,175.00 -43.30,125.00"/>
    <polygon points="86.60,100.00 129.90,125.00 129.90,175.00 86.60,200.00 43.30,175.00 43.30,125.00"/>
    <polygon points="173.21,100.00 216.51,125.00 216.51,175.00 173.21,200.00 129.90,175.00 129.90,125.00"/>
    <polygon points="259.81,100.00 303.11,125.00 303.11,175.00 259.81,200.00 216.51,175.00 216.51,125.00"/>
    <polygon points="346.41,100.00 389.71,125.00 389.71,175.00 346.41,200.00 303.11,175.00 303.11,125.00"/>
    <polygon points="433.01,100.00 476.31,125.00 476.31,175.00 433.01,200.00 389.71,175.00 389.71,125.00"/>
    <polygon points="519.62,100.00 562.92,125.00 562.92,175.00 519.62,200.00 476.31,175.00 476.31,125.00"/>
    <polygon points="606.22,100.00 649.52,125.00 649.52,175.00 606.22,200.00 562.92,175.00 562.92,125.00"/>
    <polygon points="692.82,100.00 736.12,125.00 736.12,175.00 692.82,200.00 649.52,175.00 649.52,125.00"/>
    <polygon points="779.42,100.00 822.72,125.00 822.72,175.00 779.42,200.00 736.12,175.00 736.12,125.00"/>
    <polygon points="866.03,100.00 909.33,125.00 909.33,175.00 866.03,200.00 822.72,175.00 822.72,125.00"/>
    <polygon points="952.63,100.00 995.93,125.00 995.93,175.00 952.63,200.00 909.33,175.00 909.33,125.00"/>
    <polygon points="1039.23,100.00 1082.53,125.00 1082.53,175.00 1039.23,200.00 995.93,175.00 995.93,125.00"/>
    <polygon points="1125.83,100.00 1169.13,125.00 1169.13,175.00 1125.83,200.00 1082.53,175.00 1082.53,125.00"/>
    <polygon points="1212.44,100.00 1255.74,125.00 1255.74,175.00 1212.44,200.00 1169.13,175.00 1169.13,125.00"/>
    <polygon points="43.30,175.00 86.60,200.00 86.60,250.00 43.30,275.00 -0.00,250.00 0.00,200.00"/>
    <polygon points="129.90,175.00 173.21,200.00 173.21,250.00 129.90,275.00 86.60,250.00 86.60,200.00"/>
    <polygon points="216.51,175.00 259.81,200.00 259.81,250.00 216.51,275.00 173.21,250.00 173.21,200.00"/>
    <polygon points="303.11,175.00 346.41,200.00 346.41,250.00 303.11,275.00 259.81,250.00 259.81,200.00"/>
    <polygon points="389.71,175.00 433.01,200.00 433.01,250.00 389.71,275.00 346.41,250.00 346.41,200.00"/>
    <polygon points="476.31,175.00 519.62,200.00 519.62,250.00 476.31,275.00 433.01,250.00 433.01,200.00"/>
    <polygon points="562.92,175.00 606.22,200.00 606.22,250.00 562.92,275.00 519.62,250.00 519.62,200.00"/>
    <polygon points="649.52,175.00 692.82,200.00 692.82,250.00 649.52,275.00 606.22,250.00 606.22,200.00"/>
    <polygon points="736.12,175.00 779.42,200.00 779.42,250.00 736.12,275.00 692.82,250.00 692.82,200.00"/>
    <polygon points="822.72,175.00 866.03,200.00 866.03,250.00 822.72,275.00 779.42,250.00 779.42,200.00"/>
    <polygon points="909.33,175.00 952.63,200.00 952.63,250.00 909.33,275.00 866.03,250.00 866.03,200.00"/>
    <polygon points="995.93,175.00 1039.23,200.00 1039.23,250.00 995.93,275.00 952.63,250.00 952.63,200.00"/>
    <polygon points="1082.53,175.00 1125.83,200.00 1125.83,250.00 1082.53,275.00 1039.23,250.00 1039.23,200.00"/>
    <polygon points="1169.13,175.00 1212.44,200.00 1212.44,250.00 1169.13,275.00 1125.83,250.00 1125.83,200.00"/>
    <polygon points="1255.74,175.00 1299.04,200.00 1299.04,250.00 1255.74,275.00 1212.44,250.00 1212.44,200.00"/>
    <polygon points="0.00,250.00 43.30,275.00 43.30,325.00 0.00,350.00 -43.30,325.00 -43.30,275.00"/>
    <polygon points="86.60,250.00 129.90,275.00 129.90,325.00 86.60,350.00 43.30,325.00 43.30,275.00"/>
    <polygon points="173.21,250.00 216.51,275.00 216.51,325.00 173.21,350.00 129.90,325.00 129.90,275.00"/>
    <polygon points="259.81,250.00 303.11,275.00 303.11,325.00 259.81,350.00 216.51,325.00 216.51,275.00"/>
    <polygon points="346.41,250.00 389.71,275.00 389.71,325.00 346.41,350.00 303.11,325.00 303.11,275.00"/>
    <polygon points="433.01,250.00 476.31,275.00 476.31,325.00 433.01,350.00 389.71,325.00 389.71,275.00"/>
    <polygon points="519.62,250.00 562.92,275.00 562.92,325.00 519.62,350.00 476.31,325.00 476.31,275.00"/>
    <polygon points="606.22,250.00 649.52,275.00 649.52,325.00 606.22,350.00 562.92,325.00 562.92,275.00"/>
    <polygon points="692.82,250.00 736.12,275.00 736.12,325.00 692.82,350.00 649.52,325.00 649.52,275.00"/>
    <polygon points="779.42,250.00 822.72,275.00 822.72,325.00 779.42,350.00 736.12,325.00 736.12,275.00"/>
    <polygon points="866.03,250.00 909.33,275.00 909.33,325.00 866.03,350.00 822.72,325.00 822.72,275.00"/>
    <polygon points="952.63,250.00 995.93,275.00 995.93,325.00 952.63,350.00 909.33,325.00 909.33,275.00"/>
    <polygon points="1039.23,250.00 1082.53,275.00 1082.53,325.00 1039.23,350.00 995.93,325.00 995.93,275.00"/>
    <polygon points="1125.83,250.00 1169.13,275.00 1169.13,325.00 1125.83,350.00 1082.53,325.00 1082.53,275.00"/>
    <polygon points="1212.44,250.00 1255.74,275.00 1255.74,325.00 1212.44,350.00 1169.13,325.00 1169.13,275.00"/>
    <polygon points="43.30,325.00 86.60,350.00 86.60,400.00 43.30,425.00 -0.00,400.00 0.00,350.00"/>
    <polygon points="129.90,325.00 173.21,350.00 173.21,400.00 129.90,425.00 86.60,400.00 86.60,350.00"/>
    <polygon points="216.51,325.00 259.81,350.00 259.81,400.00 216.51,425.00 173.21,400.00 173.21,350.00"/>
    <polygon points="303.11,325.00 346.41,350.00 346.41,400.00 303.11,425.00 259.81,400.00 259.81,350.00"/>
    <polygon points="389.71,325.00 433.01,350.00 433.01,400.00 389.71,425.00 346.41,400.00 346.41,350.00"/>
    <polygon points="476.31,325.00 519.62,350.00 519.62,400.00 476.31,425.00 433.01,400.00 433.01,350.00"/>
    <polygon points="562.92,325.00 606.22,350.00 606.22,400.00 562.92,425.00 519.62,400.00 519.62,350.00"/>
    <polygon points="649.52,325.00 692.82,350.00 692.82,400.00 649.52,425.00 606.22,400.00 606.22,350.00"/>
    <polygon points="736.12,325.00 779.42,350.00 779.42,400.00 736.12,425.00 692.82,400.00 692.82,350.00"/>
    <polygon points="822.72,325.00 866.03,350.00 866.03,400.00 822.72,425.00 779.42,400.00 779.42,350.00"/>
    <polygon points="909.33,325.00 952.63,350.00 952.63,400.00 909.33,425.00 866.03,400.00 866.03,350.00"/>
    <polygon points="995.93,325.00 1039.23,350.00 1039.23,400.00 995.93,425.00 952.63,400.00 952.63,350.00"/>
    <polygon points="1082.53,325.00 1125.83,350.00 1125.83,400.00 1082.53,425.00 1039.23,400.00 1039.23,350.00"/>
    <polygon points="1169.13,325.00 1212.44,350.00 1212.44,400.00 1169.13,425.00 1125.83,400.00 1125.83,350.00"/>
    <polygon points="1255.74,325.00 1299.04,350.00 1299.04,400.00 1255.74,425.00 1212.44,400.00 1212.44,350.00"/>
    <polygon points="0.00,400.00 43.30,425.00 43.30,475.00 0.00,500.00 -43.30,475.00 -43.30,425.00"/>
    <polygon points="86.60,400.00 129.90,425.00 129.90,475.00 86.60,500.00 43.30,475.00 43.30,425.00"/>
    <polygon points="173.21,400.00 216.51,425.00 216.51,475.00 173.21,500.00 129.90,475.00 129.90,425.00"/>
    <polygon points="259.81,400.00 303.11,425.00 303.11,475.00 259.81,500.00 216.51,475.00 216.51,425.00"/>
    <polygon points="346.41,400.00 389.71,425.00 389.71,475.00 346.41,500.00 303.11,475.00 303.11,425.00"/>
    <polygon points="433.01,400.00 476.31,425.00 476.31,475.00 433.01,500.00 389.71,475.00 389.71,425.00"/>
    <polygon points="519.62,400.00 562.92,425.00 562.92,475.00 519.62,500.00 476.31,475.00 476.31,425.00"/>
    <polygon points="606.22,400.00 649.52,425.00 649.52,475.00 606.22,500.00 562.92,475.00 562.92,425.00"/>
    <polygon points="692.82,400.00 736.12,425.00 736.12,475.00 692.82,500.00 649.52,475.00 649.52,425.00"/>
    <polygon points="779.42,400.00 822.72,425.00 822.72,475.00 779.42,500.00 736.12,475.00 736.12,425.00"/>
    <polygon points="866.03,400.00 909.33,425.00 909.33,475.00 866.03,500.00 822.72,475.00 822.72,425.00"/>
    <polygon points="952.63,400.00 995.93,425.00 995.93,475.00 952.63,500.00 909.33,475.00 909.33,425.00"/>
    <polygon points="1039.23,400.00 1082.53,425.00 1082.53,475.00 1039.23,500.00 995.93,475.00 995.93,425.00"/>
    <polygon points="1125.83,400.00 1169.13,425.00 1169.13,475.00 1125.83,500.00 1082.53,475.00 1082.53,425.00"/>
    <polygon points="1212.44,400.00 1255.74,425.00 1255.74,475.00 1212.44,500.00 1169.13,475.00 1169.13,425.00"/>
    <polygon points="43.30,475.00 86.60,500.00 86.60,550.00 43.30,575.00 -0.00,550.00 0.00,500.00"/>
    <polygon points="129.90,475.00 173.21,500.00 173.21,550.00 129.90,575.00 86.60,550.00 86.60,500.00"/>
    <polygon points="216.51,475.00 259.81,500.00 259.81,550.00 216.51,575.00 173.21,550.00 173.21,500.00"/>
    <polygon points="303.11,475.00 346.41,500.00 346.41,550.00 303.11,575.00 259.81,550.00 259.81,500.00"/>
    <polygon points="389.71,475.00 433.01,500.00 433.01,550.00 389.71,575.00 346.41,550.00 346.41,500.00"/>
    <polygon points="476.31,475.00 519.62,500.00 519.62,550.00 476.31,575.00 433.01,550.00 433.01,500.00"/>
    <polygon points="562.92,475.00 606.22,500.00 606.22,550.00 562.92,575.00 519.62,550.00 519.62,500.00"/>
    <polygon points="649.52,475.00 692.82,500.00 692.82,550.00 649.52,575.00 606.22,550.00 606.22,500.00"/>
    <polygon points="736.12,475.00 779.42,500.00 779.42,550.00 736.12,575.00 692.82,550.00 692.82,500.00"/>
    <polygon points="822.72,475.00 866.03,500.00 866.03,550.00 822.72,575.00 779.42,550.00 779.42,500.00"/>
    <polygon points="909.33,475.00 952.63,500.00 952.63,550.00 909.33,575.00 866.03,550.00 866.03,500.00"/>
    <polygon points="995.93,475.00 1039.23,500.00 1039.23,550.00 995.93,575.00 952.63,550.00 952.63,500.00"/>
    <polygon points="1082.53,475.00 1125.83,500.00 1125.83,550.00 1082.53,575.00 1039.23,550.00 1039.23,500.00"/>
    <polygon points="1169.13,475.00 1212.44,500.00 1212.44,550.00 1169.13,575.00 1125.83,550.00 1125.83,500.00"/>
    <polygon points="1255.74,475.00 1299.04,500.00 1299.04,550.00 1255.74,575.00 1212.44,550.00 1212.44,500.00"/>
    <polygon points="0.00,550.00 43.30,575.00 43.30,625.00 0.00,650.00 -43.30,625.00 -43.30,575.00"/>
    <polygon points="86.60,550.00 129.90,575.00 129.90,625.00 86.60,650.00 43.30,625.00 43.30,575.00"/>
    <polygon points="173.21,550.00 216.51,575.00 216.51,625.00 173.21,650.00 129.90,625.00 129.90,575.00"/>
    <polygon points="259.81,550.00 303.11,575.00 303.11,625.00 259.81,650.00 216.51,625.00 216.51,575.00"/>
    <polygon points="346.41,550.00 389.71,575.00 389.71,625.00 346.41,650.00 303.11,625.00 303.11,575.00"/>
    <polygon points="433.01,550.00 476.31,575.00 476.31,625.00 433.01,650.00 389.71,625.00 389.71,575.00"/>
    <polygon points="519.62,550.00 562.92,575.00 562.92,625.00 519.62,650.00 476.31,625.00 476.31,575.00"/>
    <polygon points="606.22,550.00 649.52,575.00 649.52,625.00 606.22,650.00 562.92,625.00 562.92,575.00"/>
    <polygon points="692.82,550.00 736.12,575.00 736.12,625.00 692.82,650.00 649.52,625.00 649.52,575.00"/>
    <polygon points="779.42,550.00 822.72,575.00 822.72,625.00 779.42,650.00 736.12,625.00 736.12,575.00"/>
    <polygon points="866.03,550.00 909.33,575.00 909.33,625.00 866.03,650.00 822.72,625.00 822.72,575.00"/>
    <polygon points="952.63,550.00 995.93,575.00 995.93,625.00 952.63,650.00 909.33,625.00 909.33,575.00"/>
    <polygon points="1039.23,550.00 1082.53,575.00 1082.53,625.00 1039.23,650.00 995.93,625.00 995.93,575.00"/>
    <polygon points="1125.83,550.00 1169.13,575.00 1169.13,625.00 1125.83,650.00 1082.53,625.00 1082.53,575.00"/>
    <polygon points="1212.44,550.00 1255.74,575.00 1255.74,625.00 1212.44,650.00 1169.13,625.00 1169.13,575.00"/>
    <polygon points="43.30,625.00 86.60,650.00 86.60,700.00 43.30,725.00 -0.00,700.00 0.00,650.00"/>
    <polygon points="129.90,625.00 173.21,650.00 173.21,700.00 129.90,725.00 86.60,700.00 86.60,650.00"/>
    <polygon points="216.51,625.00 259.81,650.00 259.81,700.00 216.51,725.00 173.21,700.00 173.21,650.00"/>
    <polygon points="303.11,625.00 346.41,650.00 346.41,700.00 303.11,725.00 259.81,700.00 259.81,650.00"/>
    <polygon points="389.71,625.00 433.01,650.00 433.01,700.00 389.71,725.00 346.41,700.00 346.41,650.00"/>
    <polygon points="476.31,625.00 519.62,650.00 519.62,700.00 476.31,725.00 433.01,700.00 433.01,650.00"/>
    <polygon points="562.92,625.00 606.22,650.00 606.22,700.00 562.92,725.00 519.62,700.00 519.62,650.00"/>
    <polygon points="649.52,625.00 692.82,650.00 692.82,700.00 649.52,725.00 606.22,700.00 606.22,650.00"/>
    <polygon points="736.12,625.00 779.42,650.00 779.42,700.00 736.12,725.00 692.82,700.00 692.82,650.00"/>
    <polygon points="822.72,625.00 866.03,650.00 866.03,700.00 822.72,725.00 779.42,700.00 779.42,650.00"/>
    <polygon points="909.33,625.00 952.63,650.00 952.63,700.00 909.33,725.00 866.03,700.00 866.03,650.00"/>
    <polygon points="995.93,625.00 1039.23,650.00 1039.23,700.00 995.93,725.00 952.63,700.00 952.63,650.00"/>
    <polygon points="1082.53,625.00 1125.83,650.00 1125.83,700.00 1082.53,725.00 1039.23,700.00 1039.23,650.00"/>
    <polygon points="1169.13,625.00 1212.44,650.00 1212.44,700.00 1169.13,725.00 1125.83,700.00 1125.83,650.00"/>
    <polygon points="1255.74,625.00 1299.04,650.00 1299.04,700.00 1255.74,725.00 1212.44,700.00 1212.44,650.00"/>
    <polygon points="0.00,700.00 43.30,725.00 43.30,775.00 0.00,800.00 -43.30,775.00 -43.30,725.00"/>
    <polygon points="86.60,700.00 129.90,725.00 129.90,775.00 86.60,800.00 43.30,775.00 43.30,725.00"/>
    <polygon points="173.21,700.00 216.51,725.00 216.51,775.00 173.21,800.00 129.90,775.00 129.90,725.00"/>
    <polygon points="259.81,700.00 303.11,725.00 303.11,775.00 259.81,800.00 216.51,775.00 216.51,725.00"/>
    <polygon points="346.41,700.00 389.71,725.00 389.71,775.00 346.41,800.00 303.11,775.00 303.11,725.00"/>
    <polygon points="433.01,700.00 476.31,725.00 476.31,775.00 433.01,800.00 389.71,775.00 389.71,725.00"/>
    <polygon points="519.62,700.00 562.92,725.00 562.92,775.00 519.62,800.00 476.31,775.00 476.31,725.00"/>
    <polygon points="606.22,700.00 649.52,725.00 649.52,775.00 606.22,800.00 562.92,775.00 562.92,725.00"/>
    <polygon points="692.82,700.00 736.12,725.00 736.12,775.00 692.82,800.00 649.52,775.00 649.52,725.00"/>
    <polygon points="779.42,700.00 822.72,725.00 822.72,775.00 779.42,800.00 736.12,775.00 736.12,725.00"/>
    <polygon points="866.03,700.00 909.33,725.00 909.33,775.00 866.03,800.00 822.72,775.00 822.72,725.00"/>
    <polygon points="952.63,700.00 995.93,725.00 995.93,775.00 952.63,800.00 909.33,775.00 909.33,725.00"/>
    <polygon points="1039.23,700.00 1082.53,725.00 1082.53,775.00 1039.23,800.00 995.93,775.00 995.93,725.00"/>
    <polygon points="1125.83,700.00 1169.13,725.00 1169.13,775.00 1125.83,800.00 1082.53,775.00 1082.53,725.00"/>
    <polygon points="1212.44,700.00 1255.74,725.00 1255.74,775.00 1212.44,800.00 1169.13,775.00 1169.13,725.00"/>
    <polygon points="43.30,775.00 86.60,800.00 86.60,850.00 43.30,875.00 -0.00,850.00 0.00,800.00"/>
    <polygon points="129.90,775.00 173.21,800.00 173.21,850.00 129.90,875.00 86.60,850.00 86.60,800.00"/>
    <polygon points="216.51,775.00 259.81,800.00 259.81,850.00 216.51,875.00 173.21,850.00 173.21,800.00"/>
    <polygon points="303.11,775.00 346.41,800.00 346.41,850.00 303.11,875.00 259.81,850.00 259.81,800.00"/>
    <polygon points="389.71,775.00 433.01,800.00 433.01,850.00 389.71,875.00 346.41,850.00 346.41,800.00"/>
    <polygon points="476.31,775.00 519.62,800.00 519.62,850.00 476.31,875.00 433.01,850.00 433.01,800.00"/>
    <polygon points="562.92,775.00 606.22,800.00 606.22,850.00 562.92,875.00 519.62,850.00 519.62,800.00"/>
    <polygon points="649.52,775.00 692.82,800.00 692.82,850.00 649.52,875.00 606.22,850.00 606.22,800.00"/>
    <polygon points="736.12,775.00 779.42,800.00 779.42,850.00 736.12,875.00 692.82,850.00 692.82,800.00"/>
    <polygon points="822.72,775.00 866.03,800.00 866.03,850.00 822.72,875.00 779.42,850.00 779.42,800.00"/>
    <polygon points="909.33,775.00 952.63,800.00 952.63,850.00 909.33,875.00 866.03,850.00 866.03,800.00"/>
    <polygon points="995.93,775.00 1039.23,800.00 1039.23,850.00 995.93,875.00 952.63,850.00 952.63,800.00"/>
    <polygon points="1082.53,775.00 1125.83,800.00 1125.83,850.00 1082.53,875.00 1039.23,850.00 1039.23,800.00"/>
    <polygon points="1169.13,775.00 1212.44,800.00 1212.44,850.00 1169.13,875.00 1125.83,850.00 1125.83,800.00"/>
    <polygon points="1255.74,775.00 1299.04,800.00 1299.04,850.00 1255.74,875.00 1212.44,850.00 1212.44,800.00"/>
    <polygon points="0.00,850.00 43.30,875.00 43.30,925.00 0.00,950.00 -43.30,925.00 -43.30,875.00"/>
    <polygon points="86.60,850.00 129.90,875.00 129.90,925.00 86.60,950.00 43.30,925.00 43.30,875.00"/>
    <polygon points="173.21,850.00 216.51,875.00 216.51,925.00 173.21,950.00 129.90,925.00 129.90,875.00"/>
    <polygon points="259.81,850.00 303.11,875.00 303.11,925.00 259.81,950.00 216.51,925.00 216.51,875.00"/>
    <polygon points="346.41,850.00 389.71,875.00 389.71,925.00 346.41,950.00 303.11,925.00 303.11,875.00"/>
    <polygon points="433.01,850.00 476.31,875.00 476.31,925.00 433.01,950.00 389.71,925.00 389.71,875.00"/>
    <polygon points="519.62,850.00 562.92,875.00 562.92,925.00 519.62,950.00 476.31,925.00 476.31,875.00"/>
    <polygon points="606.22,850.00 649.52,875.00 649.52,925.00 606.22,950.00 562.92,925.00 562.92,875.00"/>
    <polygon points="692.82,850.00 736.12,875.00 736.12,925.00 692.82,950.00 649.52,925.00 649.52,875.00"/>
    <polygon points="779.42,850.00 822.72,875.00 822.72,925.00 779.42,950.00 736.12,925.00 736.12,875.00"/>
    <polygon points="866.03,850.00 909.33,875.00 909.33,925.00 866.03,950.00 822.72,925.00 822.72,875.00"/>
    <polygon points="952.63,850.00 995.93,875.00 995.93,925.00 952.63,950.00 909.33,925.00 909.33,875.00"/>
    <polygon points="1039.23,850.00 1082.53,875.00 1082.53,925.00 1039.23,950.00 995.93,925.00 995.93,875.00"/>
    <polygon points="1125.83,850.00 1169.13,875.00 1169.13,925.00 1125.83,950.00 1082.53,925.00 1082.53,875.00"/>
    <polygon points="1212.44,850.00 1255.74,875.00 1255.74,925.00 1212.44,950.00 1169.13,925.00 1169.13,875.00"/>
    <polygon points="43.30,925.00 86.60,950.00 86.60,1000.00 43.30,1025.00 -0.00,1000.00 0.00,950.00"/>
    <polygon points="129.90,925.00 173.21,950.00 173.21,1000.00 129.90,1025.00 86.60,1000.00 86.60,950.00"/>
    <polygon points="216.51,925.00 259.81,950.00 259.81,1000.00 216.51,1025.00 173.21,1000.00 173.21,950.00"/>
    <polygon points="303.11,925.00 346.41,950.00 346.41,1000.00 303.11,1025.00 259.81,1000.00 259.81,950.00"/>
    <polygon points="389.71,925.00 433.01,950.00 433.01,1000.00 389.71,1025.00 346.41,1000.00 346.41,950.00"/>
    <polygon points="476.31,925.00 519.62,950.00 519.62,1000.00 476.31,1025.00 433.01,1000.00 433.01,950.00"/>
    <polygon points="562.92,925.00 606.22,950.00 606.22,1000.00 562.92,1025.00 519.62,1000.00 519.62,950.00"/>
    <polygon points="649.52,925.00 692.82,950.00 692.82,1000.00 649.52,1025.00 606.22,1000.00 606.22,950.00"/>
    <polygon points="736.12,925.00 779.42,950.00 779.42,1000.00 736.12,1025.00 692.82,1000.00 692.82,950.00"/>
    <polygon points="822.72,925.00 866.03,950.00 866.03,1000.00 822.72,1025.00 779.42,1000.00 779.42,950.00"/>
    <polygon points="909.33,925.00 952.63,950.00 952.63,1000.00 909.33,1025.00 866.03,1000.00 866.03,950.00"/>
    <polygon points="995.93,925.00 1039.23,950.00 1039.23,1000.00 995.93,1025.00 952.63,1000.00 952.63,950.00"/>
    <polygon points="1082.53,925.00 1125.83,950.00 1125.83,1000.00 1082.53,1025.00 1039.23,1000.00 1039.23,950.00"/>
    <polygon points="1169.13,925.00 1212.44,950.00 1212.44,1000.00 1169.13,1025.00 1125.83,1000.00 1125.83,950.00"/>
    <polygon points="1255.74,925.00 1299.04,950.00 1299.04,1000.00 1255.74,1025.00 1212.44,1000.00 1212.44,950.00"/>
    <polygon points="0.00,1000.00 43.30,1025.00 43.30,1075.00 0.00,1100.00 -43.30,1075.00 -43.30,1025.00"/>
    <polygon points="86.60,1000.00 129.90,1025.00 129.90,1075.00 86.60,1100.00 43.30,1075.00 43.30,1025.00"/>
    <polygon points="173.21,1000.00 216.51,1025.00 216.51,1075.00 173.21,1100.00 129.90,1075.00 129.90,1025.00"/>
    <polygon points="259.81,1000.00 303.11,1025.00 303.11,1075.00 259.81,1100.00 216.51,1075.00 216.51,1025.00"/>
    <polygon points="346.41,1000.00 389.71,1025.00 389.71,1075.00 346.41,1100.00 303.11,1075.00 303.11,1025.00"/>
    <polygon points="433.01,1000.00 476.31,1025.00 476.31,1075.00 433.01,1100.00 389.71,1075.00 389.71,1025.00"/>
    <polygon points="519.62,1000.00 562.92,1025.00 562.92,1075.00 519.62,1100.00 476.31,1075.00 476.31,1025.00"/>
    <polygon points="606.22,1000.00 649.52,1025.00 649.52,1075.00 606.22,1100.00 562.92,1075.00 562.92,1025.00"/>
    <polygon points="692.82,1000.00 736.12,1025.00 736.12,1075.00 692.82,1100.00 649.52,1075.00 649.52,1025.00"/>
    <polygon points="779.42,1000.00 822.72,1025.00 822.72,1075.00 779.42,1100.00 736.12,1075.00 736.12,1025.00"/>
    <polygon points="866.03,1000.00 909.33,1025.00 909.33,1075.00 866.03,1100.00 822.72,1075.00 822.72,1025.00"/>
    <polygon points="952.63,1000.00 995.93,1025.00 995.93,1075.00 952.63,1100.00 909.33,1075.00 909.33,1025.00"/>
    <polygon points="1039.23,1000.00 1082.53,1025.00 1082.53,1075.00 1039.23,1100.00 995.93,1075.00 995.93,1025.00"/>
    <polygon points="1125.83,1000.00 1169.13,1025.00 1169.13,1075.00 1125.83,1100.00 1082.53,1075.00 1082.53,1025.00"/>
    <polygon points="1212.44,1000.00 1255.74,1025.00 1255.74,1075.00 1212.44,1100.00 1169.13,1075.00 1169.13,1025.00"/>
    <polygon points="43.30,1075.00 86.60,1100.00 86.60,1150.00 43.30,1175.00 -0.00,1150.00 0.00,1100.00"/>
    <polygon points="129.90,1075.00 173.21,1100.00 173.21,1150.00 129.90,1175.00 86.60,1150.00 86.60,1100.00"/>
    <polygon points="216.51,1075.00 259.81,1100.00 259.81,1150.00 216.51,1175.00 173.21,1150.00 173.21,1100.00"/>
    <polygon points="303.11,1075.00 346.41,1100.00 346.41,1150.00 303.11,1175.00 259.81,1150.00 259.81,1100.00"/>
    <polygon points="389.71,1075.00 433.01,1100.00 433.01,1150.00 389.71,1175.00 346.41,1150.00 346.41,1100.00"/>
    <polygon points="476.31,1075.00 519.62,1100.00 519.62,1150.00 476.31,1175.00 433.01,1150.00 433.01,1100.00"/>
    <polygon points="562.92,1075.00 606.22,1100.00 606.22,1150.00 562.92,1175.00 519.62,1150.00 519.62,1100.00"/>
    <polygon points="649.52,1075.00 692.82,1100.00 692.82,1150.00 649.52,1175.00 606.22,1150.00 606.22,1100.00"/>
    <polygon points="736.12,1075.00 779.42,1100.00 779.42,1150.00 736.12,1175.00 692.82,1150.00 692.82,1100.00"/>
    <polygon points="822.72,1075.00 866.03,1100.00 866.03,1150.00 822.72,1175.00 779.42,1150.00 779.42,1100.00"/>
    <polygon points="909.33,1075.00 952.63,1100.00 952.63,1150.00 909.33,1175.00 866.03,1150.00 866.03,1100.00"/>
    <polygon points="995.93,1075.00 1039.23,1100.00 1039.23,1150.00 995.93,1175.00 952.63,1150.00 952.63,1100.00"/>
    <polygon points="1082.53,1075.00 1125.83,1100.00 1125.83,1150.00 1082.53,1175.00 1039.23,1150.00 1039.23,1100.00"/>
    <polygon points="1169.13,1075.00 1212.44,1100.00 1212.44,1150.00 1169.13,1175.00 1125.83,1150.00 1125.83,1100.00"/>
    <polygon points="1255.74,1075.00 1299.04,1100.00 1299.04,1150.00 1255.74,1175.00 1212.44,1150.00 1212.44,1100.00"/>
    <polygon points="0.00,1150.00 43.30,1175.00 43.30,1225.00 0.00,1250.00 -43.30,1225.00 -43.30,1175.00"/>
    <polygon points="86.60,1150.00 129.90,1175.00 129.90,1225.00 86.60,1250.00 43.30,1225.00 43.30,1175.00"/>
    <polygon points="173.21,1150.00 216.51,1175.00 216.51,1225.00 173.21,1250.00 129.90,1225.00 129.90,1175.00"/>
    <polygon points="259.81,1150.00 303.11,1175.00 303.11,1225.00 259.81,1250.00 216.51,1225.00 216.51,1175.00"/>
    <polygon points="346.41,1150.00 389.71,1175.00 389.71,1225.00 346.41,1250.00 303.11,1225.00 303.11,1175.00"/>
    <polygon points="433.01,1150.00 476.31,1175.00 476.31,1225.00 433.01,1250.00 389.71,1225.00 389.71,1175.00"/>
    <polygon points="519.62,1150.00 562.92,1175.00 562.92,1225.00 519.62,1250.00 476.31,1225.00 476.31,1175.00"/>
    <polygon points="606.22,1150.00 649.52,1175.00 649.52,1225.00 606.22,1250.00 562.92,1225.00 562.92,1175.00"/>
    <polygon points="692.82,1150.00 736.12,1175.00 736.12,1225.00 692.82,1250.00 649.52,1225.00 649.52,1175.00"/>
    <polygon points="779.42,1150.00 822.72,1175.00 822.72,1225.00 779.42,1250.00 736.12,1225.00 736.12,1175.00"/>
    <polygon points="866.03,1150.00 909.33,1175.00 909.33,1225.00 866.03,1250.00 822.72,1225.00 822.72,1175.00"/>
    <polygon points="952.63,1150.00 995.93,1175.00 995.93,1225.00 952.63,1250.00 909.33,1225.00 909.33,1175.00"/>
    <polygon points="1039.23,1150.00 1082.53,1175.00 1082.53,1225.00 1039.23,1250.00 995.93,1225.00 995.93,1175.00"/>
    <polygon points="1125.83,1150.00 1169.13,1175.00 1169.13,1225.00 1125.83,1250.00 1082.53,1225.00 1082.53,1175.00"/>
    <polygon points="1212.44,1150.00 1255.74,1175.00 1255.74,1225.00 1212.44,1250.00 1169.13,1225.00 1169.13,1175.00"/>
    <polygon points="43.30,1225.00 86.60,1250.00 86.60,1300.00 43.30,1325.00 -0.00,1300.00 0.00,1250.00"/>
    <polygon points="129.90,1225.00 173.21,1250.00 173.21,1300.00 129.90,1325.00 86.60,1300.00 86.60,1250.00"/>
    <polygon points="216.51,1225.00 259.81,1250.00 259.81,1300.00 216.51,1325.00 173.21,1300.00 173.21,1250.00"/>
    <polygon points="303.11,1225.00 346.41,1250.00 346.41,1300.00 303.11,1325.00 259.81,1300.00 259.81,1250.00"/>
    <polygon points="389.71,1225.00 433.01,1250.00 433.01,1300.00 389.71,1325.00 346.41,1300.00 346.41,1250.00"/>
    <polygon points="476.31,1225.00 519.62,1250.00 519.62,1300.00 476.31,1325.00 433.01,1300.00 433.01,1250.00"/>
    <polygon points="562.92,1225.00 606.22,1250.00 606.22,1300.00 562.92,1325.00 519.62,1300.00 519.62,1250.00"/>
    <polygon points="649.52,1225.00 692.82,1250.00 692.82,1300.00 649.52,1325.00 606.22,1300.00 606.22,1250.00"/>
    <polygon points="736.12,1225.00 779.42,1250.00 779.42,1300.00 736.12,1325.00 692.82,1300.00 692.82,1250.00"/>
    <polygon points="822.72,1225.00 866.03,1250.00 866.03,1300.00 822.72,1325.00 779.42,1300.00 779.42,1250.00"/>
    <polygon points="909.33,1225.00 952.63,1250.00 952.63,1300.00 909.33,1325.00 866.03,1300.00 866.03,1250.00"/>
    <polygon points="995.93,1225.00 1039.23,1250.00 1039.23,1300.00 995.93,1325.00 952.63,1300.00 952.63,1250.00"/>
    <polygon points="1082.53,1225.00 1125.83,1250.00 1125.83,1300.00 1082.53,1325.00 1039.23,1300.00 1039.23,1250.00"/>
    <polygon points="1169.13,1225.00 1212.44,1250.00 1212.44,1300.00 1169.13,1325.00 1125.83,1300.00 1125.83,1250.00"/>
    <polygon points="1255.74,1225.00 1299.04,1250.00 1299.04,1300.00 1255.74,1325.00 1212.44,1300.00 1212.44,1250.00"/>
</svg>